HIERARCHY
ROOT Hips
{
	OFFSET -21.947001 39.810204 44.525997
	CHANNELS 6 Xposition Yposition Zposition Zrotation Xrotation Yrotation
	JOINT Chest
	{
		OFFSET -0.201599 0.334099 6.453201
		CHANNELS 6 Xposition Yposition Zposition Zrotation Xrotation Yrotation
		JOINT Chest2
		{
			OFFSET 0.000000 0.000000 3.568001
			CHANNELS 6 Xposition Yposition Zposition Zrotation Xrotation Yrotation
			JOINT Neck
			{
				OFFSET 0.000000 0.000000 8.296402
				CHANNELS 6 Xposition Yposition Zposition Zrotation Xrotation Yrotation
				JOINT Head
				{
					OFFSET 0.000000 0.000000 2.173901
					CHANNELS 6 Xposition Yposition Zposition Zrotation Xrotation Yrotation
					End Site
					{
						OFFSET 0.000000 0.000000 7.891998
					}
				}
			}
			JOINT LeftCollar
			{
				OFFSET 1.927601 0.221401 6.049000
				CHANNELS 6 Xposition Yposition Zposition Zrotation Xrotation Yrotation
				JOINT LeftShoulder
				{
					OFFSET 4.959700 0.000000 0.000000
					CHANNELS 6 Xposition Yposition Zposition Zrotation Xrotation Yrotation
					JOINT LeftElbow
					{
						OFFSET 0.000000 0.000000 -8.654202
						CHANNELS 6 Xposition Yposition Zposition Zrotation Xrotation Yrotation
						JOINT LeftWrist
						{
							OFFSET 0.000000 0.000000 -13.864101
							CHANNELS 6 Xposition Yposition Zposition Zrotation Xrotation Yrotation
							End Site
							{
								OFFSET 0.000000 0.000000 -2.173901
							}
						}
					}
				}
			}
			JOINT RightCollar
			{
				OFFSET -3.155701 -0.764999 6.687801
				CHANNELS 6 Xposition Yposition Zposition Zrotation Xrotation Yrotation
				JOINT RightShoulder
				{
					OFFSET -3.592899 0.000000 0.000000
					CHANNELS 6 Xposition Yposition Zposition Zrotation Xrotation Yrotation
					JOINT RightElbow
					{
						OFFSET 0.000000 0.000000 -10.352398
						CHANNELS 6 Xposition Yposition Zposition Zrotation Xrotation Yrotation
						JOINT RightWrist
						{
							OFFSET 0.000000 0.000000 -12.750301
							CHANNELS 6 Xposition Yposition Zposition Zrotation Xrotation Yrotation
							End Site
							{
								OFFSET 0.000000 0.000000 -2.173901
							}
						}
					}
				}
			}
		}
	}
	JOINT LeftHip
	{
		OFFSET 2.460600 -0.518101 -2.735500
		CHANNELS 6 Xposition Yposition Zposition Zrotation Xrotation Yrotation
		JOINT LeftKnee
		{
			OFFSET 0.000000 -0.000004 -17.005899
			CHANNELS 6 Xposition Yposition Zposition Zrotation Xrotation Yrotation
			JOINT LeftAnkle
			{
				OFFSET 0.000000 0.000000 -19.194401
				CHANNELS 6 Xposition Yposition Zposition Zrotation Xrotation Yrotation
				End Site
				{
					OFFSET 0.000000 -8.134600 0.000000
				}
			}
		}
	}
	JOINT RightHip
	{
		OFFSET -3.115499 -0.679600 -2.320301
		CHANNELS 6 Xposition Yposition Zposition Zrotation Xrotation Yrotation
		JOINT RightKnee
		{
			OFFSET 0.000000 -0.000004 -17.680401
			CHANNELS 6 Xposition Yposition Zposition Zrotation Xrotation Yrotation
			JOINT RightAnkle
			{
				OFFSET 0.000000 0.000000 -16.993797
				CHANNELS 6 Xposition Yposition Zposition Zrotation Xrotation Yrotation
				End Site
				{
					OFFSET 0.000000 -8.842300 0.000000
				}
			}
		}
	}
}
MOTION
Frames: 4
Frame Time: 0.041667
-23.975302 14.281008 24.745396 2260.457116 27.731564 -3.993022 -0.201599 0.334098 6.453199 13.369662 14.325675 -1.950972 -0.000001 0.000001 3.567996 -0.403977 -7.706895 -1.122448 -0.000005 0.000001 8.296397 -29.480633 -5.302113 10.929355 0.000002 0.000003 2.173898 -2.783790 -2.179616 -5.423247 1.927597 0.221404 6.048996 -10.326000 -0.222205 -4.393659 4.959698 -0.000000 0.000008 217.504082 167.066837 103.352852 0.000001 0.000002 -8.654203 -1.014932 -0.404485 2.337258 0.000004 0.000005 -13.864100 2333.118308 -169.663880 150.741988 -3.155704 -0.764999 6.687800 34.276751 4.378445 -1.943699 -3.592896 0.000004 0.000006 -19.659284 14.604601 71.616835 -0.000004 0.000002 -10.352395 -212.331197 -168.220620 -175.379846 -0.000003 0.000002 -12.750293 0.795372 -4.782711 92.234547 2.460598 -0.518104 -2.735500 105.070630 -26.301400 110.131070 -0.000004 -0.000001 -17.005896 -336.708327 171.524355 -68.852330 -0.000008 0.000001 -19.194401 414.925632 5.979995 38.746635 -3.115501 -0.679602 -2.320297 -80.527555 -50.072144 -48.374815 -0.000004 -0.000005 -17.680393 -23.983222 197.587332 -296.885319 0.000004 0.000001 -16.993797 310.775410 35.815220 -50.148372
-24.053501 14.236404 24.260597 2259.980424 28.166894 -4.114150 -0.201599 0.334098 6.453205 13.566543 14.303398 -1.930956 0.000001 0.000001 3.567998 -0.470907 -7.701042 -1.139722 -0.000003 0.000010 8.296401 -29.581560 -5.003991 11.309746 -0.000002 -0.000003 2.173906 -2.604862 -1.980454 -5.396600 1.927599 0.221404 6.048999 -10.276918 -0.220766 -4.396900 4.959698 0.000000 0.000009 217.654155 166.265642 104.505794 -0.000002 0.000000 -8.654199 -3.020440 -0.419433 2.480418 0.000001 0.000004 -13.864102 2335.614114 -169.839252 151.060207 -3.155704 -0.764997 6.687805 34.234001 4.366518 -1.776859 -3.592896 0.000002 0.000006 -18.861468 16.256130 69.680681 0.000001 0.000000 -10.352397 -213.115931 -168.175418 -175.744538 -0.000005 -0.000000 -12.750292 3.571999 -6.331053 92.254586 2.460595 -0.518106 -2.735502 106.612109 -25.680717 111.939697 -0.000000 -0.000000 -17.005898 -336.741385 171.889866 -67.432955 -0.000004 0.000003 -19.194401 415.075541 6.056644 38.421829 -3.115494 -0.679600 -2.320301 -83.877038 -49.513479 -51.949203 -0.000004 -0.000007 -17.680405 -22.416047 198.457854 -298.237041 0.000003 -0.000002 -16.993793 311.681886 36.518460 -51.712838
-24.121101 14.189802 23.820295 2259.468542 28.594326 -4.229550 -0.201596 0.334097 6.453199 13.835745 14.293693 -1.883032 0.000005 0.000009 3.567997 -0.568299 -7.669173 -1.156517 0.000001 -0.000001 8.296402 -29.797575 -4.707469 11.713722 -0.000004 0.000001 2.173898 -2.340338 -1.762925 -5.430827 1.927603 0.221401 6.049000 -10.245262 -0.211765 -4.466347 4.959705 0.000002 0.000003 217.836330 165.483790 105.690723 -0.000000 -0.000002 -8.654199 -4.892776 -0.525401 2.652124 0.000006 0.000005 -13.864096 2337.875617 -170.023161 151.419939 -3.155703 -0.765003 6.687805 34.198320 4.323050 -1.573273 -3.592896 -0.000001 0.000002 -18.066457 17.599794 67.683377 -0.000001 0.000001 -10.352396 -213.566792 -168.299099 -176.029616 -0.000006 0.000001 -12.750297 6.105863 -7.527567 92.457334 2.460595 -0.518105 -2.735502 108.234538 -24.982839 113.657182 -0.000005 0.000000 -17.005898 -336.692235 172.335385 -66.121873 -0.000009 0.000000 -19.194401 415.146711 6.125520 38.351768 -3.115494 -0.679602 -2.320304 -86.967754 -48.828582 -55.312883 -0.000006 -0.000011 -17.680397 -20.852542 199.266193 -299.375142 0.000005 -0.000003 -16.993793 312.662592 37.250909 -52.823665
-24.178705 14.137905 23.427092 2258.978298 29.042760 -4.163066 -0.201600 0.334094 6.453208 14.089146 14.241738 -1.981088 0.000002 -0.000001 3.567996 -0.658600 -7.626107 -1.173059 -0.000001 0.000001 8.296402 -29.829140 -4.356260 12.015305 0.000001 -0.000001 2.173905 -2.136208 -1.560324 -5.417610 1.927602 0.221404 6.048999 -10.160188 -0.301604 -4.638435 4.959708 0.000002 0.000003 218.039528 164.634115 106.866000 -0.000000 -0.000002 -8.654197 -6.480691 -0.686439 2.834596 -0.000002 0.000004 -13.864088 2340.198537 -169.559255 153.102256 -3.155699 -0.765000 6.687804 34.089211 4.184521 -1.173847 -3.592901 0.000001 0.000003 -17.080208 18.827548 65.469754 -0.000002 0.000006 -10.352400 -215.493916 -168.411032 -176.736978 -0.000004 -0.000002 -12.750298 9.661993 -8.354716 92.761591 2.460595 -0.518106 -2.735500 109.907627 -24.347418 115.343180 -0.000006 -0.000001 -17.005899 -336.593252 172.864684 -64.959170 -0.000006 0.000007 -19.194403 415.121686 6.181857 38.493433 -3.115501 -0.679598 -2.320298 -89.751664 -47.901933 -58.433737 -0.000006 -0.000014 -17.680401 -19.413588 199.992829 -300.434422 0.000005 -0.000001 -16.993797 313.610267 37.903230 -53.681353
